<svg width="21" height="20" viewBox="0 0 21 20" fill="none" xmlns="http://www.w3.org/2000/svg">
<path d="M20.9803 9.4104C20.6403 3.61044 15.3703 -0.85955 9.3003 0.14045C5.12029 0.83045 1.77029 4.22043 1.12029 8.4004C0.740293 10.8204 1.24031 13.1104 2.33031 15.0004L1.4403 18.3104C1.2403 19.0604 1.93028 19.7404 2.67028 19.5304L5.93029 18.6304C7.41029 19.5004 9.1403 20.0004 10.9903 20.0004C16.6303 20.0004 21.3103 15.0304 20.9803 9.4104ZM15.8803 13.7204C15.7903 13.9004 15.6803 14.0704 15.5403 14.2304C15.2903 14.5004 15.0203 14.7004 14.7203 14.8204C14.4203 14.9504 14.0903 15.0104 13.7403 15.0104C13.2303 15.0104 12.6803 14.8905 12.1103 14.6405C11.5303 14.3905 10.9603 14.0604 10.3903 13.6504C9.8103 13.2304 9.2703 12.7604 8.7503 12.2504C8.2303 11.7304 7.77027 11.1804 7.35027 10.6104C6.94027 10.0404 6.61029 9.4704 6.37029 8.9004C6.13029 8.3304 6.01031 7.78045 6.01031 7.26045C6.01031 6.92044 6.0703 6.59044 6.1903 6.29044C6.3103 5.98044 6.50032 5.70045 6.77032 5.45045C7.09032 5.13045 7.4403 4.98045 7.8103 4.98045C7.95029 4.98045 8.09027 5.01044 8.22027 5.07044C8.35027 5.13044 8.47029 5.22044 8.5603 5.35044L9.7203 6.99043C9.8103 7.12043 9.8803 7.23043 9.9203 7.34043C9.9703 7.45043 9.9903 7.55043 9.9903 7.65043C9.9903 7.77043 9.9503 7.89045 9.8803 8.0104C9.8103 8.1304 9.7203 8.2504 9.6003 8.3704L9.2203 8.7704C9.1603 8.8304 9.1403 8.8904 9.1403 8.9704C9.1403 9.0104 9.1503 9.0504 9.1603 9.0904C9.1803 9.1304 9.1903 9.1604 9.2003 9.1904C9.2903 9.3604 9.4503 9.5704 9.6703 9.8304C9.9003 10.0904 10.1403 10.3604 10.4003 10.6204C10.6703 10.8904 10.9303 11.1304 11.2003 11.3604C11.4603 11.5804 11.6803 11.7304 11.8503 11.8204C11.8803 11.8304 11.9103 11.8504 11.9403 11.8604C11.9803 11.8804 12.0203 11.8804 12.0703 11.8804C12.1603 11.8804 12.2203 11.8504 12.2803 11.7904L12.6603 11.4104C12.7903 11.2804 12.9103 11.1904 13.0203 11.1304C13.1403 11.0604 13.2503 11.0204 13.3803 11.0204C13.4803 11.0204 13.5803 11.0404 13.6903 11.0904C13.8003 11.1404 13.9203 11.2004 14.0403 11.2904L15.7003 12.4704C15.8303 12.5604 15.9203 12.6704 15.9803 12.7904C16.0303 12.9204 16.0603 13.0404 16.0603 13.1804C16.0003 13.3504 15.9603 13.5404 15.8803 13.7204Z" fill="white"/>
</svg>
